<svg xmlns="http://www.w3.org/2000/svg" viewBox="0 0 512 512" width="512" height="512">
  <defs>
    <linearGradient id="g" x1="0" y1="0" x2="1" y2="1">
      <stop offset="0" stop-color="#10b981"/>
      <stop offset="1" stop-color="#0ea5e9"/>
    </linearGradient>
  </defs>
  <rect width="512" height="512" rx="96" fill="#0f172a"/>
  <rect x="64" y="64" width="384" height="384" rx="72" fill="url(#g)" opacity="0.18"/>
  <g fill="#ffffff">
    <path d="M256 120c-10 0-19 8-19 19v44h-52c-22 0-41 18-41 41v155c0 22 18 41 41 41h142c22 0 41-18 41-41V224c0-22-18-41-41-41h-52v-44c0-10-8-19-19-19zm-78 104h156c6 0 11 5 11 11v144c0 6-5 11-11 11H178c-6 0-11-5-11-11V235c0-6 5-11 11-11z"/>
    <path d="M222 164h68c7 0 13 6 13 13s-6 13-13 13h-68c-7 0-13-6-13-13s6-13 13-13z" opacity="0.8"/>
  </g>
  <text x="256" y="430" text-anchor="middle" font-family="Inter, Arial, sans-serif" font-size="38" fill="#ffffff" opacity="0.85">SMS</text>
</svg>
