<svg xmlns="http://www.w3.org/2000/svg" viewBox="0 0 512 512" width="512" height="512">
  <rect width="512" height="512" fill="#0f172a"/>
  <g transform="translate(0,0)">
    <circle cx="256" cy="256" r="220" fill="#10b981" opacity="0.22"/>
    <g fill="#ffffff">
      <path d="M256 128c-11 0-20 9-20 20v44h-60c-24 0-44 20-44 44v152c0 24 20 44 44 44h160c24 0 44-20 44-44V236c0-24-20-44-44-44h-60v-44c0-11-9-20-20-20zm-84 110h168c6 0 12 5 12 12v140c0 6-5 12-12 12H172c-6 0-12-5-12-12V250c0-6 5-12 12-12z"/>
      <path d="M224 168h64c8 0 14 6 14 14s-6 14-14 14h-64c-8 0-14-6-14-14s6-14 14-14z" opacity="0.85"/>
    </g>
  </g>
</svg>
